<svg xmlns="http://www.w3.org/2000/svg" xmlns:xlink="http://www.w3.org/1999/xlink" width="1447.089" height="443.672" viewBox="0 0 1447.089 443.672">
  <defs>
    <filter id="Path_193" x="0" y="135.977" width="1447.089" height="192.179" filterUnits="userSpaceOnUse">
      <feOffset dx="1.15" dy="16.05" input="SourceAlpha"/>
      <feGaussianBlur stdDeviation="10.32" result="blur"/>
      <feFlood flood-color="#151513" flood-opacity="0.443"/>
      <feComposite operator="in" in2="blur"/>
      <feComposite in="SourceGraphic"/>
    </filter>
  </defs>
  <g id="OBJECTS" transform="translate(-146.207 -570.575)">
    <g id="Group_100" data-name="Group 100" transform="translate(168.53 570.67)">
      <g id="Group_97" data-name="Group 97" transform="translate(232.47)">
        <circle id="Ellipse_6" data-name="Ellipse 6" cx="221.741" cy="221.741" r="221.741" transform="translate(246.5)" fill="none" stroke="#fff" stroke-miterlimit="10" stroke-width="0.19" opacity="0.3"/>
        <path id="Path_192" data-name="Path 192" d="M1193.563,746.907c0,258.522-209.59,112.132-468.111,112.132S257.34,1005.429,257.34,746.907,466.929,641.312,725.451,641.312,1193.563,488.358,1193.563,746.907Z" transform="translate(-257.84 -526.63)" fill="none" stroke="#96a3b4" stroke-miterlimit="10" stroke-width="4.59"/>
      </g>
      <g id="Group_99" data-name="Group 99" transform="translate(0.47 116.363)">
        <g id="Group_98" data-name="Group 98" style="mix-blend-mode: soft-light;isolation: isolate">
          <text id="COMING_SOON" data-name="COMING SOON" transform="translate(0 173)" fill="none" stroke="#ebedee" stroke-miterlimit="10" stroke-width="1" font-size="179" font-family="Montserrat-Bold, Montserrat" font-weight="700"><tspan x="0" y="0" letter-spacing="-0.02em">C</tspan><tspan y="0">OMING SOON</tspan></text>
        </g>
        <g transform="matrix(1, 0, 0, 1, -22.79, -116.46)" filter="url(#Path_193)">
          <path id="Path_193-2" data-name="Path 193" d="M70.775,83.032c21.95,0,40.121-7.916,52-22.489L104.059,43.271C95.6,53.166,84.988,58.2,72.394,58.2c-23.569,0-40.3-16.552-40.3-40.3s16.732-40.3,40.3-40.3c12.594,0,23.209,5.038,31.665,14.753L122.77-24.917C110.9-39.311,92.725-47.227,70.955-47.227,31.733-47.227,2.587-20.06,2.587,17.9S31.733,83.032,70.775,83.032Zm126.3,0c39.581,0,68.908-27.527,68.908-65.129s-29.326-65.129-68.908-65.129c-39.761,0-68.908,27.707-68.908,65.129S157.314,83.032,197.076,83.032Zm0-24.828c-22.489,0-39.4-16.372-39.4-40.3s16.912-40.3,39.4-40.3,39.4,16.372,39.4,40.3S219.565,58.2,197.076,58.2ZM429.886,80.873l-.36-125.941H405.6L359.179,33.2,312.042-45.068H287.933V80.873H315.28V6.928l36.883,60.632H365.3L402.359,5.308l.18,75.565Zm29.866,0H488.9V-45.068H459.752ZM605.484-45.068V31.4L542.873-45.068H518.764V80.873h28.786V4.409l62.79,76.464H634.27V-45.068ZM749.236,52.806a46.27,46.27,0,0,1-22.669,5.4c-24.109,0-40.841-16.732-40.841-40.3,0-23.929,16.732-40.3,41.2-40.3,12.774,0,23.389,4.5,32.565,14.213L778.2-25.457c-12.234-14.213-30.586-21.77-52.715-21.77-40.121,0-69.268,27.167-69.268,65.129s29.146,65.129,68.728,65.129c17.992,0,37.063-5.577,50.916-16.012v-51.1H749.236ZM895.148,83.032c35.983,0,53.435-17.992,53.435-39.042,0-46.238-73.226-30.226-73.226-53.435,0-7.916,6.657-14.393,23.929-14.393,11.155,0,23.209,3.238,34.9,9.9l9-22.13c-11.695-7.377-27.887-11.155-43.719-11.155-35.8,0-53.075,17.812-53.075,39.222,0,46.778,73.226,30.586,73.226,54.155,0,7.736-7.017,13.494-24.289,13.494-15.113,0-30.945-5.4-41.56-13.134l-9.9,21.95C855.027,77.095,875.177,83.032,895.148,83.032Zm134.4,0c39.581,0,68.908-27.527,68.908-65.129s-29.326-65.129-68.908-65.129c-39.761,0-68.908,27.707-68.908,65.129S989.783,83.032,1029.545,83.032Zm0-24.828c-22.489,0-39.4-16.372-39.4-40.3s16.912-40.3,39.4-40.3,39.4,16.372,39.4,40.3S1052.034,58.2,1029.545,58.2Zm151.849,24.828c39.581,0,68.908-27.527,68.908-65.129s-29.326-65.129-68.908-65.129c-39.761,0-68.908,27.707-68.908,65.129S1141.632,83.032,1181.393,83.032Zm0-24.828c-22.49,0-39.4-16.372-39.4-40.3s16.912-40.3,39.4-40.3,39.4,16.372,39.4,40.3S1203.883,58.2,1181.393,58.2ZM1358.97-45.068V31.4l-62.611-76.464h-24.109V80.873h28.786V4.409l62.791,76.464h23.929V-45.068Z" transform="translate(27.22 198.11)" fill="#2d3ebc"/>
        </g>
      </g>
    </g>
  </g>
</svg>
