<svg xmlns="http://www.w3.org/2000/svg" width="510.42" height="110.288" viewBox="0 0 510.42 110.288">
  <g id="Group_1" data-name="Group 1" transform="translate(-116 1369.674)">
    <g id="Group_12" data-name="Group 12" transform="translate(46.23 -1969.674)">
      <g id="Group_1-2" data-name="Group 1" transform="translate(-754.774 69.042)">
        <rect id="Rectangle_4" data-name="Rectangle 4" width="31.194" height="31.194" transform="translate(868.659 553.016) rotate(45)" fill="#0068ff" opacity="0.6"/>
        <path id="Rectangle_11" data-name="Rectangle 11" d="M0,0H31.194V31.194H4a4,4,0,0,1-4-4Z" transform="translate(846.602 575.073) rotate(45)" fill="#0068ff" opacity="0.8"/>
        <rect id="Rectangle_7" data-name="Rectangle 7" width="31.194" height="31.194" transform="translate(912.774 553.016) rotate(45)" fill="#0068ff" opacity="0.6"/>
        <rect id="Rectangle_9" data-name="Rectangle 9" width="31.194" height="31.194" transform="translate(890.716 575.073) rotate(45)" fill="#0068ff" opacity="0.8"/>
        <path id="Rectangle_13" data-name="Rectangle 13" d="M0,0H31.194V27.194a4,4,0,0,1-4,4H0Z" transform="translate(912.774 597.131) rotate(45)" fill="#0068ff"/>
        <path id="Rectangle_14" data-name="Rectangle 14" d="M0,0H31.194V27.194a4,4,0,0,1-4,4H0Z" transform="translate(868.659 597.131) rotate(45)" fill="#0068ff"/>
        <path id="Rectangle_15" data-name="Rectangle 15" d="M0,0H31.194V27.194a4,4,0,0,1-4,4H0Z" transform="translate(956.889 597.131) rotate(45)" fill="#0068ff"/>
        <rect id="Rectangle_10" data-name="Rectangle 10" width="31.194" height="31.194" transform="translate(934.831 575.073) rotate(45)" fill="#0068ff" opacity="0.8"/>
        <path id="Rectangle_12" data-name="Rectangle 12" d="M0,0H27.194a4,4,0,0,1,4,4V31.194H0Z" transform="translate(978.946 575.073) rotate(45)" fill="#0068ff" opacity="0.8"/>
        <rect id="Rectangle_8" data-name="Rectangle 8" width="31.194" height="31.194" transform="translate(956.889 553.016) rotate(45)" fill="#0068ff" opacity="0.6"/>
        <path id="Rectangle_5" data-name="Rectangle 5" d="M3,0H31.194V31.194H0V3A3,3,0,0,1,3,0Z" transform="translate(890.716 530.958) rotate(45)" fill="#0068ff" opacity="0.4"/>
        <path id="Rectangle_6" data-name="Rectangle 6" d="M3,0H31.194V31.194H0V3A3,3,0,0,1,3,0Z" transform="translate(934.831 530.958) rotate(45)" fill="#0068ff" opacity="0.4"/>
      </g>
    </g>
    <path id="Path_265" data-name="Path 265" d="M-128.17,0h12.25l-16.66-49h-14.28L-163.52,0h12.25l2.45-7.7h18.2Zm-17.29-18.2,5.74-17.99,5.74,17.99ZM-87.71-49v17.29c-2.31-2.66-5.74-4.27-10.43-4.27-9.17,0-16.73,8.05-16.73,18.48S-107.31.98-98.14.98c4.69,0,8.12-1.61,10.43-4.27V0h10.5V-49ZM-96.04-8.96c-4.83,0-8.33-3.29-8.33-8.54s3.5-8.54,8.33-8.54,8.33,3.29,8.33,8.54S-91.21-8.96-96.04-8.96Zm65.73-27.02c-4.97,0-8.19,1.82-10.15,4.62a10.415,10.415,0,0,0-9.17-4.62c-4.69,0-7.77,1.82-9.38,4.2V-35h-10.5V0h10.5V-19.74c0-4.13,1.96-6.58,5.46-6.58,3.36,0,5.04,2.24,5.04,5.74V0h10.5V-19.74c0-4.13,1.96-6.58,5.46-6.58,3.36,0,5.04,2.24,5.04,5.74V0h10.5V-21.49C-17.01-30.24-22.26-35.98-30.31-35.98Zm25.76-2.1a6.364,6.364,0,0,0,6.3-6.3,6.364,6.364,0,0,0-6.3-6.3,6.364,6.364,0,0,0-6.3,6.3A6.364,6.364,0,0,0-4.55-38.08ZM-9.8,0H.7V-35H-9.8ZM28.91-35.98c-4.62,0-8.12,1.68-10.01,4.27V-35H8.4V0H18.9V-19.11c0-4.97,2.66-7.21,6.51-7.21,3.36,0,6.09,2.03,6.09,6.37V0H42V-21.49C42-30.94,35.98-35.98,28.91-35.98Zm31.85,25.2V-49H49.56V0h28.7V-10.78Zm27.3-27.3a6.364,6.364,0,0,0,6.3-6.3,6.364,6.364,0,0,0-6.3-6.3,6.364,6.364,0,0,0-6.3,6.3A6.364,6.364,0,0,0,88.06-38.08ZM82.81,0h10.5V-35H82.81Zm38.71-24.92V-35h-7.21v-9.8l-10.5,3.15V-35h-5.6v10.08h5.6v12.39c0,9.8,3.99,13.93,17.71,12.53V-9.52c-4.62.28-7.21,0-7.21-3.01V-24.92ZM136.15-13.3H161a20.348,20.348,0,0,0,.42-4.2c0-10.57-7.56-18.48-17.78-18.48-11.06,0-18.62,8.05-18.62,18.48S132.44.98,144.41.98c6.65,0,11.83-2.45,15.26-7.21l-8.4-4.83a9.139,9.139,0,0,1-6.72,2.66C140.7-8.4,137.48-9.66,136.15-13.3Zm-.21-7.84c.98-3.57,3.64-5.53,7.63-5.53a7.206,7.206,0,0,1,7.42,5.53Z" transform="translate(465 -1278.674)"/>
  </g>
</svg>
