<svg xmlns="http://www.w3.org/2000/svg" width="723.964" height="427.735" viewBox="0 0 723.964 427.735">
  <g id="error4" transform="translate(0.003 -0.006)">
    <g id="Group_101" data-name="Group 101">
      <path id="Path_194" data-name="Path 194" d="M722.32,210.71C715.31,131.7,664.8,64.5,588.15,35.57c-20.15-7.61-41.96-12.7-64.3-12.76-91.27-.26-206.49,49.83-263.88,56.76S143.7,27.77,59.57,99.18s-90.1,256.96,53.64,308.92,237.41-27.79,300.83-1.32,182.37,30.85,259.19-18.9c45.55-29.5,55.17-108.59,49.09-177.16Z" fill="#f2f2f2"/>
    </g>
    <g id="Group_102" data-name="Group 102">
      <line id="Line_1" data-name="Line 1" x2="28.88" transform="translate(655.74 427.23)" fill="none" stroke="#333333" stroke-miterlimit="10" stroke-width="1"/>
      <line id="Line_2" data-name="Line 2" x2="607.28" transform="translate(42.53 427.23)" fill="none" stroke="#333333" stroke-miterlimit="10" stroke-width="1"/>
    </g>
    <g id="Group_103" data-name="Group 103">
      <path id="Path_196" data-name="Path 196" d="M48.81,377.61c1.69.74,5.82.64,5.82.64.04,0-.89-2.7-.97-2.87-.91-1.9-3.77-5.03-6.1-4.71a2.8,2.8,0,0,0-2.24,3.49c.39,1.62,2.04,2.82,3.48,3.44Z" fill="#333333"/>
      <path id="Path_197" data-name="Path 197" d="M50.24,389.58c1.75.26,5.44-.81,5.73-.9a49.6,49.6,0,0,0,2.24,6.19c.51,1.17,1.05,2.34,1.62,3.5-.34-.49-.64-.93-.69-.99-1.38-1.59-4.97-3.85-7.13-2.93a2.782,2.782,0,0,0-1.23,3.96c.8,1.46,2.72,2.18,4.27,2.4,1.58.23,4.74-.62,5.57-.85.22.44.44.89.66,1.33,1.07,2.13,2.14,4.24,3.13,6.35.35.74.67,1.49.99,2.23-.3-.44-.55-.8-.6-.86-1.37-1.59-4.97-3.85-7.13-2.93a2.782,2.782,0,0,0-1.23,3.96c.8,1.46,2.72,2.18,4.27,2.4,1.5.22,4.43-.54,5.42-.81.3.77.61,1.54.87,2.3.17.52.36,1.02.5,1.55s.29,1.05.44,1.57c.24,1.01.5,2.04.71,3.03.15.69.28,1.34.42,2-.34-.74-1.03-2.18-1.11-2.3-1.12-1.78-4.32-4.56-6.61-3.98a2.786,2.786,0,0,0-1.82,3.72c.57,1.56,2.35,2.56,3.86,3.02,1.65.5,5.31.04,5.77-.02.22,1.09.42,2.16.6,3.17.09.53.18,1.03.26,1.54h1.46c-.11-.58-.22-1.17-.34-1.8-.22-1.11-.47-2.29-.75-3.51a29.985,29.985,0,0,0,3.22-1.51,20.23,20.23,0,0,0,4.69,3.02c-.42,1.03-.84,2.03-1.25,2.97-.12.28-.24.55-.36.82h1.53a2.328,2.328,0,0,0,.11-.28c.43-1.05.87-2.17,1.31-3.34.44.09,4.06.83,5.75.45,1.53-.35,3.38-1.21,4.07-2.73a2.786,2.786,0,0,0-1.54-3.85c-2.23-.75-5.64,1.78-6.88,3.47-.07.1-.75,1.27-1.17,2.02.18-.48.35-.94.53-1.43.36-.97.68-1.95,1.04-3,.15-.51.31-1.03.47-1.56s.28-1.08.42-1.63c.3-1.27.55-2.58.77-3.9.85.31,3.89,1.37,5.46,1.25s3.53-.68,4.44-2.08a2.786,2.786,0,0,0-.94-4.04c-2.09-1.08-5.84.91-7.33,2.39-.09.09-1.04,1.28-1.55,1.94.12-.79.25-1.59.35-2.4.29-2.33.51-4.7.74-7.07.07-.72.15-1.44.22-2.17.3.11,3.88,1.45,5.64,1.32,1.57-.11,3.53-.68,4.44-2.08a2.786,2.786,0,0,0-.94-4.04c-2.09-1.08-5.84.91-7.33,2.39-.11.11-1.48,1.82-1.8,2.27.17-1.59.35-3.17.59-4.72a48.425,48.425,0,0,1,1.36-6.21c.14.05,3.87,1.46,5.68,1.34,1.57-.11,3.53-.69,4.44-2.08a2.786,2.786,0,0,0-.94-4.04c-2.09-1.08-5.84.91-7.33,2.39-.12.12-1.58,1.95-1.82,2.3.04-.12.06-.24.09-.36a36.781,36.781,0,0,1,2.46-5.88c.54-1.05,1.11-2.02,1.68-2.95.67.33,3.74,1.82,5.37,1.89,1.57.06,3.58-.29,4.64-1.58a2.786,2.786,0,0,0-.49-4.12c-1.96-1.3-5.91.26-7.55,1.57-.09.07-.92.9-1.51,1.5.27-.42.53-.85.8-1.25.98-1.48,1.98-2.78,2.87-3.92.51-.64.98-1.22,1.43-1.75.83-.01,4.16-.12,5.61-.8,1.42-.67,3.05-1.91,3.39-3.54a2.782,2.782,0,0,0-2.33-3.43c-2.34-.25-5.12,2.95-5.97,4.87-.07.17-.93,2.89-.89,2.89h.05q-.66.75-1.41,1.65c-.92,1.12-1.94,2.4-2.96,3.87a50.49,50.49,0,0,0-3.07,4.89,35.691,35.691,0,0,0-2.62,5.9.186.186,0,0,1-.02.07c.01-.69-.02-2.62-.04-2.77-.27-2.08-2.02-5.95-4.33-6.38a2.781,2.781,0,0,0-3.21,2.62c-.14,1.66,1.06,3.31,2.24,4.36,1.32,1.18,4.98,2.32,5.28,2.41a49.677,49.677,0,0,0-1.55,6.39c-.22,1.26-.41,2.53-.58,3.81,0-.6-.02-1.13-.03-1.2-.27-2.08-2.02-5.95-4.33-6.38a2.781,2.781,0,0,0-3.21,2.62c-.14,1.66,1.06,3.31,2.24,4.36s4.29,2.1,5.12,2.36c-.06.49-.13.98-.19,1.47-.28,2.36-.55,4.72-.89,7.02-.12.81-.26,1.61-.41,2.4,0-.53-.02-.98-.03-1.04-.27-2.08-2.02-5.95-4.33-6.38a2.781,2.781,0,0,0-3.21,2.62c-.14,1.66,1.07,3.31,2.24,4.36,1.13,1.01,3.99,1.99,4.97,2.31-.17.81-.34,1.62-.55,2.4-.15.53-.26,1.05-.44,1.57s-.33,1.04-.5,1.55c-.35.97-.71,1.98-1.08,2.92-.25.66-.5,1.28-.75,1.9.13-.81.34-2.39.35-2.53a10.8,10.8,0,0,0-1.45-5.26,3.231,3.231,0,0,0-.04-.62,2.783,2.783,0,0,0-3.41-2.36c-2.27.61-3.72,4.6-3.82,6.7,0,.12.07,1.47.14,2.33-.11-.49-.22-.98-.34-1.48-.24-1.01-.51-2-.79-3.08-.16-.51-.31-1.03-.47-1.56s-.37-1.06-.55-1.59c-.45-1.23-.97-2.45-1.51-3.68.88-.21,4-1,5.25-1.96s2.57-2.52,2.55-4.18a2.782,2.782,0,0,0-3.01-2.85c-2.34.25-4.37,3.98-4.79,6.04-.03.13-.16,1.64-.23,2.47-.33-.73-.66-1.46-1.03-2.19-1.05-2.11-2.17-4.2-3.28-6.3-.34-.64-.67-1.29-1.01-1.93.31-.07,4.04-.94,5.44-2.01,1.25-.96,2.57-2.52,2.55-4.18a2.782,2.782,0,0,0-3.01-2.85c-2.34.25-4.37,3.98-4.79,6.04-.03.15-.23,2.33-.25,2.88-.74-1.42-1.46-2.84-2.11-4.27a49.263,49.263,0,0,1-2.3-5.93c.15-.03,4.04-.92,5.47-2.02,1.25-.96,2.57-2.52,2.55-4.18a2.782,2.782,0,0,0-3.01-2.85c-2.34.25-4.37,3.98-4.79,6.04-.03.16-.24,2.5-.25,2.93-.04-.12-.09-.24-.12-.35a35.463,35.463,0,0,1-1.19-6.26c-.13-1.17-.19-2.29-.23-3.39.74-.09,4.12-.54,5.53-1.39,1.34-.81,2.83-2.22,3-3.87a2.777,2.777,0,0,0-2.68-3.16c-2.35,0-4.78,3.48-5.43,5.48-.04.11-.27,1.25-.43,2.09,0-.49-.02-1-.02-1.48,0-1.78.12-3.41.23-4.85.07-.82.15-1.56.23-2.25.68-.47,3.4-2.39,4.24-3.76.82-1.34,1.49-3.27.88-4.82a2.794,2.794,0,0,0-3.83-1.58c-2.09,1.08-2.64,5.29-2.3,7.36.03.18.82,2.93.86,2.9l.04-.03q-.135.99-.27,2.16c-.14,1.44-.29,3.07-.33,4.86a47.518,47.518,0,0,0,.14,5.77,36.229,36.229,0,0,0,1.07,6.37c0,.02.02.05.02.07-.37-.58-1.46-2.17-1.56-2.29-1.37-1.59-4.97-3.85-7.13-2.93a2.782,2.782,0,0,0-1.23,3.96c.8,1.46,2.72,2.18,4.27,2.4Z" fill="#333333"/>
      <path id="Path_198" data-name="Path 198" d="M90.59,378.52s.75-2.75.78-2.92c.29-2.08-.37-6.27-2.49-7.3a2.784,2.784,0,0,0-3.79,1.68c-.57,1.56.15,3.48,1.01,4.79,1,1.55,4.5,3.75,4.5,3.75Z" fill="#333333"/>
    </g>
    <g id="Group_104" data-name="Group 104">
      <path id="Path_199" data-name="Path 199" d="M597.91,385.12c1.43.63,4.94.55,4.94.55.04,0-.75-2.29-.82-2.43-.77-1.61-3.2-4.27-5.18-4a2.362,2.362,0,0,0-1.9,2.96A4.941,4.941,0,0,0,597.91,385.12Z" fill="#333333"/>
      <path id="Path_200" data-name="Path 200" d="M599.12,395.27c1.49.22,4.62-.69,4.86-.76a40.426,40.426,0,0,0,1.9,5.25c.43,1,.89,1.99,1.37,2.97-.29-.42-.54-.79-.59-.84-1.17-1.35-4.21-3.27-6.05-2.49a2.373,2.373,0,0,0-1.05,3.36,4.931,4.931,0,0,0,3.62,2.04,15.509,15.509,0,0,0,4.73-.73c.19.38.37.76.56,1.13.91,1.8,1.82,3.6,2.66,5.39.3.63.57,1.26.84,1.89-.25-.37-.47-.68-.51-.73-1.17-1.35-4.21-3.27-6.05-2.49a2.373,2.373,0,0,0-1.05,3.36,4.931,4.931,0,0,0,3.62,2.04,15.041,15.041,0,0,0,4.6-.69c.26.65.52,1.31.74,1.96.14.44.31.86.42,1.32.13.45.25.89.37,1.33.2.85.42,1.73.6,2.57.13.58.24,1.14.36,1.7-.29-.63-.88-1.85-.94-1.95-.95-1.51-3.67-3.87-5.61-3.38a2.361,2.361,0,0,0-1.54,3.16,4.943,4.943,0,0,0,3.27,2.56,16.3,16.3,0,0,0,4.9-.01c.19.93.36,1.83.51,2.69.08.45.15.88.22,1.31h1.23c-.09-.49-.19-1-.29-1.52-.18-.94-.4-1.95-.63-2.98a26.029,26.029,0,0,0,2.73-1.28,17.345,17.345,0,0,0,3.98,2.57c-.36.88-.71,1.73-1.06,2.52-.1.24-.21.46-.31.69h1.3a2.3,2.3,0,0,1,.1-.23c.37-.89.74-1.85,1.11-2.83a16.319,16.319,0,0,0,4.88.38,4.927,4.927,0,0,0,3.45-2.31,2.367,2.367,0,0,0-1.3-3.27c-1.89-.64-4.78,1.51-5.84,2.95-.06.08-.64,1.08-.99,1.71.15-.4.3-.79.45-1.21.3-.82.58-1.65.88-2.55.13-.44.26-.88.4-1.32s.23-.92.36-1.38c.26-1.08.47-2.19.65-3.31a15.43,15.43,0,0,0,4.63,1.06,4.905,4.905,0,0,0,3.76-1.76,2.375,2.375,0,0,0-.79-3.43c-1.78-.92-4.96.77-6.22,2.03-.08.08-.88,1.08-1.32,1.64.11-.67.21-1.35.3-2.03.25-1.98.43-3.99.63-6,.06-.61.13-1.23.19-1.84.26.1,3.3,1.23,4.79,1.12a4.905,4.905,0,0,0,3.76-1.76,2.375,2.375,0,0,0-.79-3.43c-1.78-.92-4.96.77-6.22,2.03-.1.09-1.25,1.54-1.53,1.92.14-1.35.3-2.69.5-4.01a41.3,41.3,0,0,1,1.15-5.27c.12.05,3.29,1.24,4.82,1.13a4.905,4.905,0,0,0,3.76-1.76,2.375,2.375,0,0,0-.79-3.43c-1.78-.92-4.96.77-6.22,2.03-.1.1-1.34,1.66-1.55,1.96.03-.1.05-.21.08-.31a30.359,30.359,0,0,1,2.09-4.99c.45-.89.94-1.71,1.43-2.5a15.842,15.842,0,0,0,4.56,1.6,4.969,4.969,0,0,0,3.94-1.34,2.355,2.355,0,0,0-.41-3.49c-1.66-1.1-5.01.22-6.41,1.33-.08.06-.78.76-1.28,1.28.23-.35.45-.72.68-1.06.84-1.26,1.68-2.36,2.43-3.33.43-.55.84-1.03,1.22-1.49a15.7,15.7,0,0,0,4.76-.68,4.963,4.963,0,0,0,2.88-3,2.362,2.362,0,0,0-1.98-2.91c-1.99-.21-4.35,2.51-5.07,4.14-.06.14-.79,2.46-.75,2.46h.04c-.38.43-.77.89-1.2,1.4-.78.95-1.65,2.04-2.51,3.28a40.7,40.7,0,0,0-2.6,4.15,30.116,30.116,0,0,0-2.22,5.01.142.142,0,0,1-.02.06c.01-.59-.02-2.22-.03-2.35-.23-1.77-1.71-5.05-3.68-5.41a2.375,2.375,0,0,0-2.73,2.22,4.937,4.937,0,0,0,1.9,3.7c1.12,1,4.23,1.97,4.48,2.05a42.2,42.2,0,0,0-1.31,5.43c-.19,1.07-.35,2.15-.49,3.24,0-.51-.02-.96-.03-1.02-.23-1.77-1.71-5.05-3.68-5.41a2.375,2.375,0,0,0-2.73,2.22,4.9,4.9,0,0,0,1.9,3.7,15.573,15.573,0,0,0,4.34,2c-.05.42-.11.83-.16,1.25-.24,2-.47,4.01-.76,5.96-.1.69-.22,1.36-.35,2.04,0-.45-.02-.83-.02-.89-.23-1.77-1.71-5.05-3.68-5.41a2.37,2.37,0,0,0-2.73,2.22,4.921,4.921,0,0,0,1.9,3.7,15.063,15.063,0,0,0,4.22,1.96c-.15.69-.29,1.38-.46,2.04-.13.45-.22.89-.37,1.33s-.28.88-.42,1.31c-.3.82-.6,1.68-.92,2.47-.21.56-.43,1.08-.64,1.61.11-.69.29-2.03.29-2.14a9.1,9.1,0,0,0-1.23-4.46,3.022,3.022,0,0,0-.03-.52,2.37,2.37,0,0,0-2.89-2.01c-1.93.51-3.15,3.9-3.25,5.68,0,.11.06,1.25.12,1.97-.1-.42-.19-.83-.29-1.26-.2-.85-.43-1.7-.67-2.61-.13-.44-.26-.88-.4-1.32-.12-.44-.31-.9-.47-1.35-.38-1.04-.82-2.08-1.28-3.12a15.351,15.351,0,0,0,4.45-1.67,4.937,4.937,0,0,0,2.17-3.55,2.354,2.354,0,0,0-2.55-2.42c-1.99.22-3.71,3.38-4.07,5.13-.02.11-.14,1.39-.19,2.1-.28-.62-.56-1.24-.87-1.86-.89-1.79-1.84-3.57-2.78-5.35-.29-.55-.57-1.09-.86-1.64.27-.06,3.43-.79,4.62-1.71a4.937,4.937,0,0,0,2.17-3.55,2.354,2.354,0,0,0-2.55-2.42c-1.99.22-3.71,3.38-4.07,5.13-.03.13-.19,1.98-.21,2.45-.63-1.2-1.24-2.41-1.79-3.62a41.656,41.656,0,0,1-1.95-5.03c.12-.03,3.43-.78,4.64-1.71a4.937,4.937,0,0,0,2.17-3.55,2.354,2.354,0,0,0-2.55-2.42c-1.99.22-3.71,3.38-4.07,5.13-.03.14-.21,2.12-.21,2.48-.03-.1-.07-.2-.1-.3a30.852,30.852,0,0,1-1.01-5.32c-.11-.99-.16-1.95-.19-2.88a16.01,16.01,0,0,0,4.69-1.18,4.928,4.928,0,0,0,2.54-3.29,2.372,2.372,0,0,0-2.27-2.69c-2,0-4.06,2.95-4.61,4.65-.03.09-.23,1.06-.37,1.77,0-.42-.02-.85-.02-1.25,0-1.51.1-2.89.19-4.12.06-.7.13-1.32.2-1.91a15.93,15.93,0,0,0,3.6-3.19,4.945,4.945,0,0,0,.74-4.09,2.368,2.368,0,0,0-3.25-1.34c-1.77.92-2.24,4.49-1.95,6.25.03.15.7,2.48.73,2.46l.03-.02c-.08.56-.16,1.17-.23,1.83-.12,1.22-.25,2.61-.28,4.13a41.207,41.207,0,0,0,.12,4.9,30.478,30.478,0,0,0,.91,5.4.142.142,0,0,0,.02.06c-.31-.49-1.24-1.84-1.32-1.94-1.17-1.35-4.21-3.27-6.05-2.49a2.373,2.373,0,0,0-1.05,3.36,4.931,4.931,0,0,0,3.62,2.04Z" fill="#333333"/>
      <path id="Path_201" data-name="Path 201" d="M633.36,385.89s.64-2.33.66-2.48c.25-1.77-.32-5.32-2.12-6.19a2.369,2.369,0,0,0-3.22,1.42,4.968,4.968,0,0,0,.85,4.07c.85,1.31,3.82,3.18,3.82,3.18Z" fill="#333333"/>
    </g>
    <g id="Group_105" data-name="Group 105">
      <path id="Path_202" data-name="Path 202" d="M678.06,402.81a9.957,9.957,0,0,1-2.87.32c-.02,0,.44-1.33.48-1.41.45-.93,1.86-2.47,3-2.32a1.367,1.367,0,0,1,1.1,1.72,2.874,2.874,0,0,1-1.71,1.7Z" fill="#333333"/>
      <path id="Path_203" data-name="Path 203" d="M677.36,408.7a9.474,9.474,0,0,1-2.82-.44,24.853,24.853,0,0,1-1.1,3.05c-.25.58-.52,1.15-.8,1.72.17-.24.32-.46.34-.49.68-.78,2.44-1.9,3.51-1.44a1.378,1.378,0,0,1,.61,1.95,2.846,2.846,0,0,1-2.1,1.18,9.019,9.019,0,0,1-2.74-.42c-.11.22-.21.44-.32.66-.53,1.05-1.05,2.09-1.54,3.13-.17.37-.33.73-.49,1.1a4.248,4.248,0,0,1,.3-.42c.68-.78,2.44-1.9,3.51-1.44a1.378,1.378,0,0,1,.61,1.95,2.846,2.846,0,0,1-2.1,1.18,8.572,8.572,0,0,1-2.67-.4c-.15.38-.3.76-.43,1.13-.08.26-.18.5-.25.76s-.14.52-.21.77c-.12.49-.24,1-.35,1.49-.07.34-.14.66-.21.99.17-.37.51-1.08.54-1.13.55-.88,2.13-2.24,3.25-1.96a1.375,1.375,0,0,1,.9,1.83,2.874,2.874,0,0,1-1.9,1.49,9.778,9.778,0,0,1-2.84,0c-.11.54-.21,1.06-.29,1.56-.05.26-.09.51-.13.76h-.72c.05-.29.11-.58.17-.88.11-.55.23-1.13.37-1.73a13.481,13.481,0,0,1-1.58-.74,10.14,10.14,0,0,1-2.31,1.49c.21.51.41,1,.61,1.46.06.14.12.27.18.4h-.75s-.04-.09-.06-.14c-.21-.52-.43-1.07-.65-1.64a9.2,9.2,0,0,1-2.83.22,2.864,2.864,0,0,1-2-1.34,1.367,1.367,0,0,1,.76-1.89c1.1-.37,2.77.88,3.39,1.71.04.05.37.63.57.99-.09-.23-.17-.46-.26-.7-.18-.48-.34-.96-.51-1.48-.08-.25-.15-.51-.23-.77s-.14-.53-.21-.8c-.15-.63-.27-1.27-.38-1.92a9.2,9.2,0,0,1-2.69.62,2.851,2.851,0,0,1-2.18-1.02,1.374,1.374,0,0,1,.46-1.99c1.03-.53,2.88.45,3.61,1.18.05.05.51.63.76.95-.06-.39-.12-.78-.17-1.18-.14-1.15-.25-2.32-.36-3.48-.03-.36-.07-.71-.11-1.07a9.43,9.43,0,0,1-2.78.65,2.851,2.851,0,0,1-2.18-1.02,1.374,1.374,0,0,1,.46-1.99c1.03-.53,2.88.45,3.61,1.18.06.05.73.89.89,1.12-.08-.78-.17-1.56-.29-2.33a23.064,23.064,0,0,0-.67-3.06,9.65,9.65,0,0,1-2.79.66,2.851,2.851,0,0,1-2.18-1.02,1.374,1.374,0,0,1,.46-1.99c1.03-.53,2.87.45,3.61,1.18.06.06.78.96.9,1.13-.02-.06-.03-.12-.05-.18a18.031,18.031,0,0,0-1.21-2.89,16.666,16.666,0,0,0-.83-1.45,9.278,9.278,0,0,1-2.65.93,2.842,2.842,0,0,1-2.28-.78,1.371,1.371,0,0,1,.24-2.03c.97-.64,2.91.13,3.72.77.04.03.45.44.74.74-.13-.21-.26-.42-.39-.61-.48-.73-.97-1.37-1.41-1.93-.25-.32-.48-.6-.71-.86a9.071,9.071,0,0,1-2.76-.39,2.872,2.872,0,0,1-1.67-1.74,1.374,1.374,0,0,1,1.15-1.69c1.15-.12,2.52,1.45,2.94,2.4.04.08.46,1.42.44,1.42h-.02c.22.25.45.52.7.81.45.55.95,1.18,1.46,1.9a25.131,25.131,0,0,1,1.51,2.41,18.3,18.3,0,0,1,1.29,2.9.076.076,0,0,0,.01.04c0-.34,0-1.29.02-1.36.13-1.03.99-2.93,2.13-3.14a1.368,1.368,0,0,1,1.58,1.29,2.852,2.852,0,0,1-1.1,2.15,9.7,9.7,0,0,1-2.6,1.19,23.755,23.755,0,0,1,.76,3.15c.11.62.2,1.25.29,1.88a5.505,5.505,0,0,1,.02-.59c.13-1.03.99-2.93,2.13-3.14a1.368,1.368,0,0,1,1.58,1.29,2.852,2.852,0,0,1-1.1,2.15,9.046,9.046,0,0,1-2.52,1.16c.03.24.06.48.09.73.14,1.16.27,2.32.44,3.46.06.4.13.79.2,1.18,0-.26,0-.48.01-.51.13-1.03.99-2.93,2.13-3.14a1.368,1.368,0,0,1,1.58,1.29,2.868,2.868,0,0,1-1.1,2.15,8.757,8.757,0,0,1-2.45,1.14c.08.4.17.8.27,1.18.07.26.13.52.22.77s.16.51.25.76c.17.48.35.97.53,1.44.12.32.25.63.37.94-.06-.4-.17-1.18-.17-1.24a5.339,5.339,0,0,1,.71-2.59,1.512,1.512,0,0,1,.02-.3,1.369,1.369,0,0,1,1.68-1.16c1.12.3,1.83,2.26,1.88,3.3,0,.06-.04.73-.07,1.15.06-.24.11-.48.17-.73.12-.5.25-.99.39-1.51.08-.25.15-.51.23-.77s.18-.52.27-.78c.22-.61.48-1.21.74-1.81a8.66,8.66,0,0,1-2.58-.97,2.9,2.9,0,0,1-1.26-2.06,1.365,1.365,0,0,1,1.48-1.4c1.15.13,2.15,1.96,2.36,2.97.01.06.08.81.11,1.22q.24-.54.51-1.08c.51-1.04,1.07-2.07,1.62-3.1.17-.32.33-.63.5-.95a9.724,9.724,0,0,1-2.68-.99,2.9,2.9,0,0,1-1.26-2.06,1.365,1.365,0,0,1,1.48-1.4c1.15.12,2.15,1.96,2.36,2.97.02.08.11,1.15.12,1.42.36-.7.72-1.4,1.04-2.1a23.378,23.378,0,0,0,1.13-2.92,9.771,9.771,0,0,1-2.69-.99,2.9,2.9,0,0,1-1.26-2.06,1.365,1.365,0,0,1,1.48-1.4c1.15.13,2.15,1.96,2.36,2.97.02.08.12,1.23.12,1.44.02-.06.04-.12.06-.17a17.561,17.561,0,0,0,.59-3.08c.06-.58.09-1.13.11-1.67a9.335,9.335,0,0,1-2.72-.68,2.882,2.882,0,0,1-1.48-1.91,1.37,1.37,0,0,1,1.32-1.56c1.16,0,2.35,1.71,2.67,2.7.02.05.13.62.21,1.03,0-.24.01-.49.01-.73,0-.88-.06-1.68-.11-2.39-.03-.4-.07-.77-.11-1.11a9.363,9.363,0,0,1-2.09-1.85,2.869,2.869,0,0,1-.43-2.37,1.381,1.381,0,0,1,1.89-.78c1.03.53,1.3,2.6,1.13,3.62-.01.09-.4,1.44-.42,1.43h-.02c.05.31.09.66.13,1.05.07.71.14,1.51.16,2.39a25.176,25.176,0,0,1-.07,2.84,17.816,17.816,0,0,1-.53,3.13.076.076,0,0,1-.01.04c.18-.29.72-1.07.77-1.13.68-.78,2.44-1.9,3.51-1.44a1.378,1.378,0,0,1,.61,1.95,2.846,2.846,0,0,1-2.1,1.18Z" fill="#333333"/>
      <path id="Path_204" data-name="Path 204" d="M657.49,403.25s-.37-1.35-.38-1.44c-.14-1.02.18-3.09,1.23-3.59a1.377,1.377,0,0,1,1.87.83,2.861,2.861,0,0,1-.49,2.36,9.907,9.907,0,0,1-2.22,1.85Z" fill="#333333"/>
    </g>
    <g id="Group_106" data-name="Group 106">
      <path id="Path_205" data-name="Path 205" d="M80.93,100.15c-3.31,1.93-4.56,5.68-5.16,7.48-.83,2.48-3.72-1.66-9.52.41s-6.62,6.62-7.86,7.86-9.52,4.55-9.52,4.55h83.05" fill="none" stroke="#333333" stroke-linecap="round" stroke-linejoin="round" stroke-width="1"/>
      <path id="Path_206" data-name="Path 206" d="M136.07,120.45h10.06s1.66-9.1-2.07-13.66-12,2.07-14.48-4.55c0,0-7.45-10.76-16.55-11.59s-12.83,6.21-15.73,9.93-4.55-1.66-11.59-1.66" fill="none" stroke="#333333" stroke-linecap="round" stroke-linejoin="round" stroke-width="1"/>
      <path id="Path_207" data-name="Path 207" d="M96.32,113.06a6.474,6.474,0,0,0-1.92,3.67" fill="none" stroke="#333333" stroke-linecap="round" stroke-linejoin="round" stroke-width="1"/>
      <path id="Path_208" data-name="Path 208" d="M127.92,105.97s-5.79-5.79-12.42-5.38-4.14,8.28-7.04,10.76-6.21-.83-9.93.41" fill="none" stroke="#333333" stroke-linecap="round" stroke-linejoin="round" stroke-width="1"/>
    </g>
    <g id="Group_107" data-name="Group 107">
      <path id="Path_209" data-name="Path 209" d="M305.83,8.38c-2.73,1.6-3.76,4.68-4.25,6.17-.68,2.05-3.07-1.37-7.85.34s-5.46,5.46-6.49,6.49-7.85,3.75-7.85,3.75h68.5" fill="none" stroke="#333333" stroke-linecap="round" stroke-linejoin="round" stroke-width="1"/>
      <path id="Path_210" data-name="Path 210" d="M351.3,25.13h8.3s1.37-7.51-1.71-11.26-9.9,1.71-11.95-3.75c0,0-6.14-8.87-13.65-9.56s-10.58,5.12-12.97,8.19-3.75-1.37-9.56-1.37" fill="none" stroke="#333333" stroke-linecap="round" stroke-linejoin="round" stroke-width="1"/>
      <path id="Path_211" data-name="Path 211" d="M318.52,19.03a5.355,5.355,0,0,0-1.58,3.02" fill="none" stroke="#333333" stroke-linecap="round" stroke-linejoin="round" stroke-width="1"/>
      <path id="Path_212" data-name="Path 212" d="M344.58,13.18S339.8,8.4,334.34,8.74s-3.41,6.83-5.8,8.87-5.12-.68-8.19.34" fill="none" stroke="#333333" stroke-linecap="round" stroke-linejoin="round" stroke-width="1"/>
    </g>
    <g id="Group_108" data-name="Group 108">
      <path id="Path_213" data-name="Path 213" d="M610.9,101.43c-2.73,1.6-3.76,4.68-4.25,6.17-.68,2.05-3.07-1.37-7.85.34s-5.46,5.46-6.49,6.49-7.85,3.75-7.85,3.75h68.5" fill="none" stroke="#333333" stroke-linecap="round" stroke-linejoin="round" stroke-width="1"/>
      <path id="Path_214" data-name="Path 214" d="M656.38,118.17h8.3s1.37-7.51-1.71-11.26-9.9,1.71-11.95-3.75c0,0-6.14-8.87-13.65-9.56s-10.58,5.12-12.97,8.19-3.75-1.37-9.56-1.37" fill="none" stroke="#333333" stroke-linecap="round" stroke-linejoin="round" stroke-width="1"/>
      <path id="Path_215" data-name="Path 215" d="M623.59,112.08a5.355,5.355,0,0,0-1.58,3.02" fill="none" stroke="#333333" stroke-linecap="round" stroke-linejoin="round" stroke-width="1"/>
      <path id="Path_216" data-name="Path 216" d="M649.66,106.23s-4.78-4.78-10.24-4.44-3.41,6.83-5.8,8.87-5.12-.68-8.19.34" fill="none" stroke="#333333" stroke-linecap="round" stroke-linejoin="round" stroke-width="1"/>
    </g>
    <g id="Group_109" data-name="Group 109">
      <path id="Path_217" data-name="Path 217" d="M586.06,243.54l-22.33-50.69-60.39,26.61-14.3-32.45L481.76,30.08l44.19-19.47,59.43,134.91,19.15-8.44,13.94,31.65-19.15,8.44,22.33,50.69-35.6,15.68Zm-66.72-68.93,30.44-13.41L509.13,68.94l10.2,105.67Z" fill="#333333" stroke="#333333" stroke-miterlimit="10" stroke-width="1"/>
      <path id="Path_218" data-name="Path 218" d="M581.21,245.74l-22.33-50.69-60.39,26.61-14.3-32.45L476.91,32.28,521.1,12.81l59.43,134.91,19.15-8.44,13.94,31.65-19.15,8.44,22.33,50.69-35.6,15.68Zm-66.72-68.93,30.44-13.41L504.28,71.14l10.2,105.67Z" fill="#0068ff" stroke="#333333" stroke-miterlimit="10" stroke-width="1"/>
    </g>
    <g id="Group_110" data-name="Group 110">
      <path id="Path_219" data-name="Path 219" d="M396.38,287.69q-19.26,3.555-33.52-2.77a53.525,53.525,0,0,1-23.38-20.28q-9.12-13.965-12.78-33.85L307.43,126.16q-3.765-20.46-.54-37t14.3-27.52q11.07-10.98,30.86-14.62,19.515-3.6,33.65,2.74,14.115,6.345,23.03,20.64,8.91,14.31,12.68,34.77L440.68,209.8q3.66,19.89.12,36.19a53.387,53.387,0,0,1-14.62,27.28q-11.07,10.98-29.8,14.43Zm-7.22-39.2q7.125-1.3,9.39-6.8a30.08,30.08,0,0,0,2.07-12.45,84.458,84.458,0,0,0-1.25-12.73l-18.95-102.9a101.824,101.824,0,0,0-3.37-13.09,30.185,30.185,0,0,0-6.29-11.21q-4.1-4.455-11.48-3.1t-9.76,7.01a28.94,28.94,0,0,0-2.02,12.74,101.081,101.081,0,0,0,1.52,13.43l18.95,102.9a83.6,83.6,0,0,0,3.36,12.34,27.8,27.8,0,0,0,6.64,10.85q4.335,4.275,11.19,3Z" fill="#333333" stroke="#333333" stroke-miterlimit="10" stroke-width="1"/>
      <path id="Path_220" data-name="Path 220" d="M390.65,289.01q-19.26,3.555-33.52-2.77a53.525,53.525,0,0,1-23.38-20.28Q324.63,252,320.97,232.11L301.7,127.48q-3.765-20.46-.54-37t14.3-27.52q11.07-10.98,30.86-14.62,19.515-3.6,33.65,2.74Q394.085,57.425,403,71.72q8.91,14.31,12.68,34.77l19.27,104.63q3.66,19.89.12,36.19a53.387,53.387,0,0,1-14.62,27.28q-11.07,10.98-29.8,14.43Zm-7.22-39.2q7.125-1.3,9.39-6.8a30.08,30.08,0,0,0,2.07-12.45,84.458,84.458,0,0,0-1.25-12.73l-18.95-102.9a101.824,101.824,0,0,0-3.37-13.09,30.185,30.185,0,0,0-6.29-11.21q-4.1-4.455-11.48-3.1t-9.76,7.01a28.94,28.94,0,0,0-2.02,12.74,101.081,101.081,0,0,0,1.52,13.43l18.95,102.9a83.6,83.6,0,0,0,3.36,12.34,27.8,27.8,0,0,0,6.64,10.85q4.335,4.275,11.19,3Z" fill="#0068ff" stroke="#333333" stroke-miterlimit="10" stroke-width="1"/>
    </g>
    <g id="Group_111" data-name="Group 111">
      <path id="Path_221" data-name="Path 221" d="M166.88,261.99l12.72-53.91-64.23-15.16,8.15-34.51L212.27,28.79l47,11.09L225.41,183.36l20.37,4.81-7.94,33.66-20.37-4.81-12.72,53.91-37.86-8.94Zm-11.71-95.21,32.38,7.64L210.71,76.3l-55.54,90.48Z" fill="#333333" stroke="#333333" stroke-miterlimit="10" stroke-width="1"/>
      <path id="Path_222" data-name="Path 222" d="M161.7,260.85l12.72-53.91-64.23-15.16,8.15-34.51L207.1,27.65l47,11.09L220.24,182.22l20.37,4.81-7.94,33.66-20.37-4.81-12.72,53.91-37.86-8.94Zm-11.71-95.21,32.38,7.64,23.16-98.12Z" fill="#0068ff" stroke="#333333" stroke-miterlimit="10" stroke-width="1"/>
    </g>
    <g id="Group_117" data-name="Group 117">
      <g id="Group_112" data-name="Group 112">
        <path id="Path_223" data-name="Path 223" d="M521.8,271.4s-3.56,23.79-2.22,31.79,19.12,43.58,19.12,43.58v4.89l-13.56,6.67,4,9.12,5.56-1.33-5.34,25.35,11.56,2.45,14.9-32.46s25.79-8,26.24-10.01-4.22-32.91-4.22-32.91-5.78-28.01-9.56-37.35a186.24,186.24,0,0,0-8.45-17.79l-38.02,8Z" fill="#333333" stroke="#333333" stroke-miterlimit="10" stroke-width="1"/>
        <path id="Path_224" data-name="Path 224" d="M535.14,305.41l8.9,2.67,13.78,35.58-16.9,7.78" fill="none" stroke="#fff" stroke-miterlimit="10" stroke-width="1"/>
        <line id="Line_3" data-name="Line 3" x1="15.34" y2="3.12" transform="translate(538.03 362.55)" fill="none" stroke="#fff" stroke-miterlimit="10" stroke-width="1"/>
      </g>
      <g id="Group_113" data-name="Group 113">
        <path id="Path_225" data-name="Path 225" d="M509.04,212.98l-12.42,9.69-2.94-6.01-8.29,4.66s-.31,26.25,1.91,27.31,29.47-14.95,29.47-14.95,1.82,28.89,1.36,33.21,2.5,6.37,4.55,6.14,40.72-5.23,41.63-6.37a8.505,8.505,0,0,0,1.36-5.91c-.45-1.82-8.87-33.44-8.87-33.44s22.97,3.64,23.88,1.59,7.73-21.61,7.73-21.61l-11.6-2.73-4.32,6.6s-24.79-10.24-32.75-10.24-28.21,10.24-30.71,12.06Z" fill="#fff" stroke="#333333" stroke-miterlimit="10" stroke-width="1"/>
        <line id="Line_4" data-name="Line 4" x2="5.86" y2="2.37" transform="translate(572.5 211.16)" fill="none" stroke="#333333" stroke-miterlimit="10" stroke-width="1"/>
        <path id="Path_226" data-name="Path 226" d="M542.64,225.35l14.17,1.96-15.51,2.32" fill="none" stroke="#333333" stroke-miterlimit="10" stroke-width="1"/>
        <line id="Line_5" data-name="Line 5" x1="1.88" y2="2.14" transform="translate(487.57 230.82)" fill="none" stroke="#333333" stroke-miterlimit="10" stroke-width="1"/>
        <line id="Line_6" data-name="Line 6" x1="5.26" y2="5.98" transform="translate(491.36 222.67)" fill="none" stroke="#333333" stroke-miterlimit="10" stroke-width="1"/>
        <path id="Path_227" data-name="Path 227" d="M550.64,238.81c-4.94,6.99-15.13,20.77-21.68,25.17" fill="none" stroke="#333333" stroke-miterlimit="10" stroke-width="1"/>
        <path id="Path_228" data-name="Path 228" d="M553.52,234.64s-.52.77-1.42,2.08" fill="none" stroke="#333333" stroke-miterlimit="10" stroke-width="1"/>
        <path id="Path_229" data-name="Path 229" d="M529.06,260.64a37.662,37.662,0,0,1-4.14,3.82" fill="none" stroke="#333333" stroke-miterlimit="10" stroke-width="1"/>
        <path id="Path_230" data-name="Path 230" d="M538.24,249.92s-3.84,4.95-7.83,9.3" fill="none" stroke="#333333" stroke-miterlimit="10" stroke-width="1"/>
      </g>
      <g id="Group_114" data-name="Group 114">
        <path id="Path_231" data-name="Path 231" d="M485.39,221.32l-1.1-24.9s-4.46-8.54-4.56-9.22a91.562,91.562,0,0,1,2.16-10.43c.48-1.45,2.99.02,4.29,2.59s.66,6.11.66,6.11,2.94,4.4,3.46,6.39a10.687,10.687,0,0,1-.44,4.89l3.82,19.9-8.29,4.66Z" fill="#fff" stroke="#333333" stroke-miterlimit="10" stroke-width="1"/>
        <path id="Path_232" data-name="Path 232" d="M484,176.63a1.423,1.423,0,0,0-1.15,1.67c.3,1.35,1.73,6.7,1.52,8.23" fill="none" stroke="#333333" stroke-miterlimit="10" stroke-width="1"/>
      </g>
      <g id="Group_115" data-name="Group 115">
        <path id="Path_233" data-name="Path 233" d="M576.83,203.49s17.26-29.34,18.85-30.18,13.66-.53,13.66-.53,4.66-6.46,5.3-5.72l.64.74s1.69-.95,2.22-.42l.53.53s1.16-.95,1.8-.64.64,1.27.64,1.27,1.27-.74.95.64-4.24,8.15-5.82,9.11-17.79.95-17.79.95l-8.79,26.05-12.18-1.8Z" fill="#fff" stroke="#333333" stroke-miterlimit="10" stroke-width="1"/>
        <path id="Path_234" data-name="Path 234" d="M615.27,167.8s-4.02,7.52-4.87,8.26" fill="none" stroke="#333333" stroke-miterlimit="10" stroke-width="1"/>
        <line id="Line_7" data-name="Line 7" x1="4.97" y2="9.11" transform="translate(613.05 167.9)" fill="none" stroke="#333333" stroke-miterlimit="10" stroke-width="1"/>
        <line id="Line_8" data-name="Line 8" x1="4.77" y2="8.05" transform="translate(615.69 168.54)" fill="none" stroke="#333333" stroke-miterlimit="10" stroke-width="1"/>
      </g>
      <path id="Path_235" data-name="Path 235" d="M482.46,220.13l2.43,7.23,12.52-8.72-3.01-6.45Z" fill="#fff" stroke="#333333" stroke-miterlimit="10" stroke-width="1"/>
      <g id="Group_116" data-name="Group 116">
        <path id="Path_236" data-name="Path 236" d="M557.49,174.53a32.251,32.251,0,0,1-1.14,8.19c-1.14,3.64,2.05,6.82,1.14,7.96a17.55,17.55,0,0,1-3.87,2.73s-1.36,6.14-3.64,7.05-8.64-1.82-8.64-1.82-5.69-7.28-1.82-13.65,17.97-10.46,17.97-10.46Z" fill="#fff" stroke="#333333" stroke-miterlimit="10" stroke-width="1"/>
        <path id="Path_237" data-name="Path 237" d="M553.39,185.81c-.27.84-.77,1.44-1.11,1.33s-.41-.88-.14-1.73.77-1.44,1.11-1.33S553.66,184.96,553.39,185.81Z" fill="#333333"/>
        <path id="Path_238" data-name="Path 238" d="M551.49,181.52a2.5,2.5,0,0,1,3.3-.75" fill="none" stroke="#333333" stroke-miterlimit="10" stroke-width="1"/>
        <path id="Path_239" data-name="Path 239" d="M548.17,190.87a4.369,4.369,0,0,0,3.94,2.92" fill="none" stroke="#333333" stroke-miterlimit="10" stroke-width="1"/>
      </g>
      <path id="Path_240" data-name="Path 240" d="M562.27,163.84s2.5,5.91-.45,9.78-10.46,4.09-15.01,10.01-2.73,13.65-1.59,16.15-.68,12.06-3.87,13.42-8.42,2.27-7.05,5.46,2.96,8.64,1.59,11.37-10.01,7.51-16.83,5-6.6-7.51-4.78-10.92-1.82-1.82-5.69-7.28-8.64-15.01-2.5-19.79,10.92-6.37,11.37-10.92-1.88-15.35,4.03-19.9,9.26-3.47,9.26-3.47,5.59-6.19,11.73-6.19,8.64,3.87,8.64,3.87,7.73-6.14,11.15,3.41Z" fill="#333333" stroke="#333333" stroke-miterlimit="10" stroke-width="1"/>
      <path id="Path_241" data-name="Path 241" d="M575.92,200.92l-2.05,5.23,14.78,5.23,2.05-8.18Z" fill="#fff" stroke="#333333" stroke-miterlimit="10" stroke-width="1"/>
      <path id="Path_242" data-name="Path 242" d="M525.14,358.33s-29.23,10.25-28.88,12.37,7.23,20.62,10.04,23.61,4.05,4.76,4.58,2.29-.18-5.46-.18-6.7,1.41-15.33,1.94-16.04,16.49-6.42,16.49-6.42l-4-9.12Z" fill="#fff" stroke="#333333" stroke-miterlimit="10" stroke-width="1"/>
      <path id="Path_243" data-name="Path 243" d="M507.89,375.28l-3.28-9.16c-4.78,2.01-8.48,3.82-8.35,4.58.35,2.11,7.23,20.62,10.04,23.61s4.05,4.76,4.58,2.29-.18-5.46-.18-6.7,1.41-15.33,1.94-16.04l-4.76,1.41Z" fill="#fff" stroke="#333333" stroke-miterlimit="10" stroke-width="1"/>
      <path id="Path_244" data-name="Path 244" d="M529.36,391.46s-8.35,28.77-8.08,30.34,8.23,4.05,11.28,4.91,10.81.56,12.87-.28,3.37-2.51,1.75-3.11-6.11-1.73-6.11-1.73L534.53,413l6.39-19.09-11.56-2.45Z" fill="#fff" stroke="#333333" stroke-miterlimit="10" stroke-width="1"/>
      <path id="Path_245" data-name="Path 245" d="M547.18,423.32c-1.63-.6-6.11-1.73-6.11-1.73L534.53,413l-1.52,3.98-9.96-3.18c-1.08,4.54-1.87,7.48-1.77,8,.28,1.57,8.23,4.05,11.28,4.91s10.81.56,12.87-.28,3.37-2.51,1.75-3.11Z" fill="#fff" stroke="#333333" stroke-miterlimit="10" stroke-width="1"/>
    </g>
    <g id="Group_119" data-name="Group 119">
      <g id="Group_118" data-name="Group 118">
        <path id="Path_246" data-name="Path 246" d="M326.67,157.08s8.85,7.92,10.14,7.92,2.58-3.87,4.61-1.11,0,5.9,0,5.9,8.11,8.85,6.82,10.5-7.37,5.16-7.37,5.16l-1.29,15.48-16.59-4.61-.18-5.71-8.66-5.71s-4.61-7.74-1.47-15.3,14.01-12.53,14.01-12.53Z" fill="#fff" stroke="#333333" stroke-miterlimit="10" stroke-width="1"/>
        <path id="Path_247" data-name="Path 247" d="M326.67,157.08s-8.66,7.56-7.74,8.48,5.53,2.21,4.79,3.5-2.76,5.34-2.76,5.34,3.69,2.03,3.5,3.13-1.11,2.21-1.66,2.03-5.9-2.03-6.45.92,1.84,5.71,3.87,6.63,5.34-1.11,5.34-1.11-2.21,4.42-2.76,4.61-10.51-4.24-14.38-5.9-7.37-4.05-6.45-8.11,2.03-9.21,5.53-12.16a71.19,71.19,0,0,0,6.45-6.27s-4.98-2.76-1.29-4.24a11.582,11.582,0,0,1,7.56,0s-1.29-4.05,2.03-3.32,4.98,2.95,4.42,6.45Z" fill="#333333" stroke="#333333" stroke-miterlimit="10" stroke-width="1"/>
        <path id="Path_248" data-name="Path 248" d="M340.86,185.46l-5.9,3.32,5.16,3.68Z" fill="#333333" stroke="#333333" stroke-miterlimit="10" stroke-width="1"/>
        <path id="Path_249" data-name="Path 249" d="M329.62,162.98s-3.69,0-3.32,3.5" fill="none" stroke="#333333" stroke-miterlimit="10" stroke-width="1"/>
        <path id="Path_250" data-name="Path 250" d="M333.77,167.47c.67.83.8,1.84.29,2.26s-1.48.08-2.15-.75-.8-1.84-.29-2.26S333.1,166.64,333.77,167.47Z" fill="#333333"/>
      </g>
      <path id="Path_251" data-name="Path 251" d="M313.12,404.61s.91,9.1,1.82,10.46,9.55,5.69,11.37,7.51-2.27,3.18-4.32,4.09-4.32.68-8.42-.45-7.96-4.55-10.46-5.69-8.87-3.18-8.42-4.78,8.42-14.56,8.42-14.56l10.01,3.41Z" fill="#fff" stroke="#333333" stroke-miterlimit="10" stroke-width="1"/>
      <path id="Path_252" data-name="Path 252" d="M402.74,409.16s10.01,12.97,10.69,13.19c1.64.54,8.35-6.81,9.66-7.88a49.524,49.524,0,0,0,9.98-10.76c1.12-1.7,4.52-7.49,1.75-9.33-3.43-2.29-7.6,3.09-10.46,4.32-1.59.68-6.14,2.73-6.14,2.73l-15.47,7.73Z" fill="#fff" stroke="#333333" stroke-miterlimit="10" stroke-width="1"/>
      <path id="Path_253" data-name="Path 253" d="M321.76,287.46s.68,11.6,1.59,12.97,4.09,12.06,4.09,12.06l-7.28,41.63L301.74,400.3l13.19,5.91,26.39-48.68s9.1-23.43,9.33-24.11,52.09,75.75,52.09,75.75l10.92-7.05-34.57-75.29-17.06-40.49-40.26,1.14Z" fill="#333333" stroke="#333333" stroke-miterlimit="10" stroke-width="1"/>
      <path id="Path_254" data-name="Path 254" d="M301.97,392.1l-1.82,10.23,14.56,6.37,5.46-8.19Z" fill="#fff" stroke="#333333" stroke-miterlimit="10" stroke-width="1"/>
      <path id="Path_255" data-name="Path 255" d="M397.73,406.65l5.92,5.92,14.56-11.15-5.46-6.82Z" fill="#fff" stroke="#333333" stroke-miterlimit="10" stroke-width="1"/>
      <path id="Path_256" data-name="Path 256" d="M320.59,199.65s-6.08,22.48-5.34,28.38-1.29,61.56-1.29,61.56a80.43,80.43,0,0,0,28.75,2.4c15.48-1.65,24.51-4.61,24.51-4.61s-15.48-61.37-18.06-68.74-9.03-15.85-9.03-15.85l-19.54-3.13Z" fill="#fff" stroke="#333333" stroke-miterlimit="10" stroke-width="1"/>
      <path id="Path_257" data-name="Path 257" d="M321.14,193.75l-2.4,7.19,24.88,6.45.74-8.29Z" fill="#fff" stroke="#333333" stroke-miterlimit="10" stroke-width="1"/>
      <path id="Path_258" data-name="Path 258" d="M378.46,282.77l5.16,1.29s2.21-3.13,3.87-3.69,3.69-.18,5.71-.18,3.87-2.76,5.53-1.47-.92,2.76-1.84,3.13-5.34,1.29-5.34,1.29,10.5,3.13,11.24,3.13-.55,1.84-1.47,2.4-4.05.74-4.05.74a42.86,42.86,0,0,1-7.74,2.03c-2.58.18-9.4-2.03-9.4-2.03l-4.24-1.66-2.58-.92,5.16-4.05Z" fill="#fff" stroke="#333333" stroke-miterlimit="10" stroke-width="1"/>
      <path id="Path_259" data-name="Path 259" d="M326.48,209.79s-7.74,7-5.71,13.45,50.87,68.19,50.87,68.19l10.14-9.58L339.21,210.9" fill="#fff" stroke="#333333" stroke-miterlimit="10" stroke-width="1"/>
      <line id="Line_9" data-name="Line 9" x2="14.33" y2="18.42" transform="translate(335.18 313.17)" fill="none" stroke="#fff" stroke-miterlimit="10" stroke-width="1"/>
    </g>
    <g id="Group_125" data-name="Group 125">
      <path id="Path_260" data-name="Path 260" d="M122.47,161.72s-5.93,5.79-6.37,9.4-5.5,18.67-3.76,21.56,11,8.68,11,8.68-11.29,2.89-10.42,8.83,4.92,6.51,4.92,6.51-9.12,5.35-6.08,9.26,10.27,3.33,11.43.14-1.01-7.23-1.01-7.23,5.79-1.74,7.23-4.2a7.446,7.446,0,0,0,1.01-4.77s5.06.87,8.1-1.3,4.34-8.97,4.34-8.97,10.71-6.08,14.47-15.92,2.46-13.89,0-16.93-20.4-12.01-25.9-10.85a16.839,16.839,0,0,0-8.97,5.79Z" fill="#333333" stroke="#333333" stroke-miterlimit="10" stroke-width="1"/>
      <path id="Path_261" data-name="Path 261" d="M134.77,198.33l2.89,13.46,14.9-8.68-4.05-5.79s-10.27,3.47-13.75,1.01Z" fill="#fff" stroke="#333333" stroke-miterlimit="10" stroke-width="1"/>
      <g id="Group_120" data-name="Group 120">
        <path id="Path_262" data-name="Path 262" d="M133.9,170.12l-9.12,16.06s3.33,7.38,5.35,9.69,4.49,5.21,11.29,5.93,10.85-5.93,11.14-10.27-4.34-17.22-4.34-17.22l-14.32-4.2Z" fill="#fff" stroke="#333333" stroke-miterlimit="10" stroke-width="1"/>
        <path id="Path_263" data-name="Path 263" d="M125.94,187.62s-4.34-1.74-3.33,1.88,5.64,3.62,5.64,3.62l-2.32-5.5Z" fill="#fff" stroke="#333333" stroke-miterlimit="10" stroke-width="1"/>
        <path id="Path_264" data-name="Path 264" d="M149.38,178.07a1.646,1.646,0,0,1,2.75-1.01c2.17,1.45-.72,6.8-.72,6.8l-2.03-5.79Z" fill="#fff" stroke="#333333" stroke-miterlimit="10" stroke-width="1"/>
        <path id="Path_265" data-name="Path 265" d="M138.09,185.89l1.88,4.34,2.9-1.16" fill="none" stroke="#333333" stroke-miterlimit="10" stroke-width="1"/>
        <path id="Path_266" data-name="Path 266" d="M137.8,193.27s5.93,2.6,8.25-3.76" fill="none" stroke="#333333" stroke-miterlimit="10" stroke-width="1"/>
        <path id="Path_267" data-name="Path 267" d="M142,182.85s1.88-2.46,4.34-1.74" fill="none" stroke="#333333" stroke-miterlimit="10" stroke-width="1"/>
        <path id="Path_268" data-name="Path 268" d="M138.96,177.35a5.746,5.746,0,0,1,5.79-1.88" fill="none" stroke="#333333" stroke-miterlimit="10" stroke-width="1"/>
        <path id="Path_269" data-name="Path 269" d="M133.75,179.23s-4.05-1.74-5.79,2.89" fill="none" stroke="#333333" stroke-miterlimit="10" stroke-width="1"/>
        <path id="Path_270" data-name="Path 270" d="M134.66,185.59c.37.75.26,1.56-.24,1.81s-1.21-.16-1.58-.92-.26-1.56.24-1.81S134.29,184.83,134.66,185.59Z" fill="#333333"/>
      </g>
      <path id="Path_271" data-name="Path 271" d="M205.87,174.33s8.27-5.61,8.86-6.2,4.13-2.95,5.76-4.28,2.07-5.76,3.84-5.02a2.852,2.852,0,0,1,1.62,3.84c-.59,1.33-3.54,3.69-3.54,3.69s8.12-1.62,8.56-.74a4.232,4.232,0,0,1-.15,3.54c-.59.73-1.33,1.62-1.33,1.62s-.59,5.02-1.48,6.64-4.28,2.66-6.64,2.66-7.23.59-7.23.59l-5.46,2.21-2.81-8.56Z" fill="#fff" stroke="#333333" stroke-miterlimit="10" stroke-width="1"/>
      <path id="Path_272" data-name="Path 272" d="M133.64,263.61l-.39,6.75,42.26-3.86-1.93-6.17Z" fill="#fff" stroke="#333333" stroke-miterlimit="10" stroke-width="1"/>
      <g id="Group_122" data-name="Group 122">
        <g id="Group_121" data-name="Group 121">
          <path id="Path_273" data-name="Path 273" d="M137,209.29s-7.36,4.31-9.31,7.65-17.25,27.82-16.14,30.6,6.12,6.12,8.35,6.12,21.98,3.06,21.98,3.06l-3.11-44.38L137,209.28Z" fill="#fff" stroke="#333333" stroke-miterlimit="10" stroke-width="1"/>
          <path id="Path_274" data-name="Path 274" d="M132.14,243.09s-6.4,5.01-11.96,6.4" fill="none" stroke="#333333" stroke-miterlimit="10" stroke-width="1"/>
          <path id="Path_275" data-name="Path 275" d="M130.91,244.3s-2.17,4.59-4.97,6.38" fill="none" stroke="#333333" stroke-miterlimit="10" stroke-width="1"/>
        </g>
        <path id="Path_276" data-name="Path 276" d="M205.87,174.33s-65.26,32.19-69.98,34.4-9.6,12.55-8.42,20.67,6.79,16.98,7.23,18.31-1.48,12.4-1.92,14.47-.3,3.69,1.62,4.58,38.39-4.13,39.72-4.87,2.51-2.51,1.62-5.61-4.58-11.22-4.58-11.96-6.35-20.97-6.35-20.97,29.82-25.25,33.22-29.38,10.63-11.07,10.63-11.07l-2.81-8.56Z" fill="#fff" stroke="#333333" stroke-miterlimit="10" stroke-width="1"/>
        <path id="Path_277" data-name="Path 277" d="M144.15,246.81a25.147,25.147,0,0,1-3.24,2.67" fill="none" stroke="#333333" stroke-miterlimit="10" stroke-width="1"/>
        <path id="Path_278" data-name="Path 278" d="M146.78,236.15c8.13-5.27,18.05-12.8,18.05-12.8s-10.63,13.29-18.31,21.13" fill="none" stroke="#333333" stroke-miterlimit="10" stroke-width="1"/>
        <path id="Path_279" data-name="Path 279" d="M137.66,241.06a29.641,29.641,0,0,0,6.72-3.4" fill="none" stroke="#333333" stroke-miterlimit="10" stroke-width="1"/>
        <path id="Path_280" data-name="Path 280" d="M152.57,243.43a74.267,74.267,0,0,1-6.64,6.35" fill="none" stroke="#333333" stroke-miterlimit="10" stroke-width="1"/>
        <path id="Path_281" data-name="Path 281" d="M168.29,216.06a18.1,18.1,0,0,1-2.29,2.56" fill="none" stroke="#333333" stroke-miterlimit="10" stroke-width="1"/>
        <path id="Path_282" data-name="Path 282" d="M179.59,195.15a148.962,148.962,0,0,1-9.27,18.01" fill="none" stroke="#333333" stroke-miterlimit="10" stroke-width="1"/>
        <line id="Line_10" data-name="Line 10" x2="3.69" y2="9.6" transform="translate(202.18 176.25)" fill="none" stroke="#333333" stroke-miterlimit="10" stroke-width="1"/>
      </g>
      <g id="Group_123" data-name="Group 123">
        <path id="Path_283" data-name="Path 283" d="M152.35,367.41l-7.91,30.68-5.02,7.72-3.28,11,6.75,3.28s3.67-3.67,5.79-1.54,2.32,5.79,2.32,5.79,10.23,3.09,12.35,2.89,5.4.39,5.79-.58.58-8.3-.39-9.26c-.67-.67-7.68-2.92-12.16-6.75-1.95-1.68-3.43-6.77-3.67-6.95-.77-.58,15.82-34.15,15.82-34.15l-16.4-2.12Z" fill="#fff" stroke="#333333" stroke-miterlimit="10" stroke-width="1"/>
        <path id="Path_284" data-name="Path 284" d="M169.14,426.64c.39-.96.58-8.3-.39-9.26-.67-.67-7.68-2.92-12.16-6.75-1.95-1.68-3.43-6.77-3.67-6.95-.08-.06.03-.47.27-1.14l-9.33-3.58-4.45,6.84-3.28,11,6.75,3.28s3.67-3.67,5.79-1.54,2.32,5.79,2.32,5.79,10.23,3.09,12.35,2.89,5.4.39,5.79-.58Z" fill="#333333" stroke="#333333" stroke-miterlimit="10" stroke-width="1"/>
      </g>
      <g id="Group_124" data-name="Group 124">
        <path id="Path_285" data-name="Path 285" d="M181.68,357.96l18.89,47.14s-1.22,7.12,0,9.03a93.113,93.113,0,0,1,3.99,8.86l10.07-2.43s-.87-3.47,1.91-3.3a12.02,12.02,0,0,1,4.86,1.39s8.16-4.34,10.59-5.73,3.65-3.3,3.47-3.99-2.6-6.08-5.38-5.56-7.99,2.78-10.59,2.78-8.34-1.91-9.55-3.99-9.36-37.05-9.36-37.05l-2.32-16.79-8.3-28.36-8.3,38.01Z" fill="#fff" stroke="#333333" stroke-miterlimit="10" stroke-width="1"/>
        <path id="Path_286" data-name="Path 286" d="M235.47,408.91c-.17-.69-2.6-6.08-5.38-5.56s-7.99,2.78-10.59,2.78-8.34-1.91-9.55-3.99a9.988,9.988,0,0,1-.55-1.52l-9.1,3.8.27.66s-1.22,7.12,0,9.03a93.113,93.113,0,0,1,3.99,8.86l10.07-2.43s-.87-3.47,1.91-3.3a12.02,12.02,0,0,1,4.86,1.39s8.16-4.34,10.59-5.73,3.65-3.3,3.47-3.99Z" fill="#333333" stroke="#333333" stroke-miterlimit="10" stroke-width="1"/>
      </g>
      <path id="Path_287" data-name="Path 287" d="M133.25,270.36,120.52,370.69a255.052,255.052,0,0,0,35.69,1.54c19.1-.58,24.12-1.35,24.12-1.35l9.84-45.73,10.42,39.94,4.82-1.54s-5.4-32.41-8.49-39.36S175.5,266.5,175.5,266.5Z" fill="#333333" stroke="#333333" stroke-miterlimit="10" stroke-width="1"/>
    </g>
  </g>
</svg>
